%TF.GenerationSoftware,KiCad,Pcbnew,9.0.4*%
%TF.CreationDate,2025-10-07T17:16:44+05:30*%
%TF.ProjectId,Electrode_4,456c6563-7472-46f6-9465-5f342e6b6963,rev?*%
%TF.SameCoordinates,Original*%
%TF.FileFunction,Copper,L1,Top*%
%TF.FilePolarity,Positive*%
%FSLAX46Y46*%
G04 Gerber Fmt 4.6, Leading zero omitted, Abs format (unit mm)*
G04 Created by KiCad (PCBNEW 9.0.4) date 2025-10-07 17:16:44*
%MOMM*%
%LPD*%
G01*
G04 APERTURE LIST*
G04 Aperture macros list*
%AMRoundRect*
0 Rectangle with rounded corners*
0 $1 Rounding radius*
0 $2 $3 $4 $5 $6 $7 $8 $9 X,Y pos of 4 corners*
0 Add a 4 corners polygon primitive as box body*
4,1,4,$2,$3,$4,$5,$6,$7,$8,$9,$2,$3,0*
0 Add four circle primitives for the rounded corners*
1,1,$1+$1,$2,$3*
1,1,$1+$1,$4,$5*
1,1,$1+$1,$6,$7*
1,1,$1+$1,$8,$9*
0 Add four rect primitives between the rounded corners*
20,1,$1+$1,$2,$3,$4,$5,0*
20,1,$1+$1,$4,$5,$6,$7,0*
20,1,$1+$1,$6,$7,$8,$9,0*
20,1,$1+$1,$8,$9,$2,$3,0*%
G04 Aperture macros list end*
%TA.AperFunction,SMDPad,CuDef*%
%ADD10R,0.550000X3.000000*%
%TD*%
%TA.AperFunction,SMDPad,CuDef*%
%ADD11RoundRect,0.250000X-0.250000X-0.750000X0.250000X-0.750000X0.250000X0.750000X-0.250000X0.750000X0*%
%TD*%
%TA.AperFunction,Conductor*%
%ADD12C,0.200000*%
%TD*%
G04 APERTURE END LIST*
D10*
%TO.P,E1,1*%
%TO.N,+25V*%
X145100000Y-100000000D03*
%TO.P,E1,2*%
%TO.N,GND*%
X146200000Y-100000000D03*
%TO.P,E1,3*%
%TO.N,+25V*%
X147300000Y-100000000D03*
%TO.P,E1,4*%
%TO.N,GND*%
X148400000Y-100000000D03*
%TO.P,E1,5*%
%TO.N,+25V*%
X149500000Y-100000000D03*
%TO.P,E1,6*%
%TO.N,GND*%
X150600000Y-100000000D03*
%TO.P,E1,7*%
%TO.N,+25V*%
X151700000Y-100000000D03*
%TO.P,E1,8*%
%TO.N,GND*%
X152800000Y-100000000D03*
%TO.P,E1,9*%
%TO.N,+25V*%
X153900000Y-100000000D03*
%TO.P,E1,10*%
%TO.N,GND*%
X155000000Y-100000000D03*
%TD*%
D11*
%TO.P,GND,2*%
%TO.N,GND*%
X150200000Y-96605000D03*
%TD*%
%TO.P,+25V,1*%
%TO.N,+25V*%
X148620000Y-96600000D03*
%TD*%
D12*
%TO.N,+25V*%
X151700000Y-100000000D02*
X151700000Y-98050000D01*
X147250000Y-98000000D02*
X147500000Y-98000000D01*
X148620000Y-97950000D02*
X148620000Y-96600000D01*
X145100000Y-98000000D02*
X147250000Y-98000000D01*
X149500000Y-98000000D02*
X151750000Y-98000000D01*
X148670000Y-98000000D02*
X149500000Y-98000000D01*
X147300000Y-100000000D02*
X147300000Y-98050000D01*
X151700000Y-98050000D02*
X151750000Y-98000000D01*
X145100000Y-100000000D02*
X145100000Y-98000000D01*
X148670000Y-98000000D02*
X148620000Y-97950000D01*
X151750000Y-98000000D02*
X153900000Y-98000000D01*
X149500000Y-100000000D02*
X149500000Y-98000000D01*
X147300000Y-98050000D02*
X147250000Y-98000000D01*
X153900000Y-98000000D02*
X153900000Y-100000000D01*
X147500000Y-98000000D02*
X148670000Y-98000000D01*
%TO.N,GND*%
X150600000Y-102000000D02*
X150750000Y-102000000D01*
X148500000Y-102000000D02*
X150750000Y-102000000D01*
X150750000Y-102000000D02*
X152750000Y-102000000D01*
X152750000Y-102000000D02*
X155000000Y-102000000D01*
X155000000Y-98475000D02*
X154110000Y-97585000D01*
X154110000Y-97585000D02*
X151180000Y-97585000D01*
X148500000Y-102000000D02*
X148250000Y-102000000D01*
X155000000Y-102000000D02*
X155000000Y-100000000D01*
X146200000Y-102000000D02*
X148500000Y-102000000D01*
X150600000Y-100000000D02*
X150600000Y-102000000D01*
X151180000Y-97585000D02*
X150200000Y-96605000D01*
X146200000Y-100000000D02*
X146200000Y-102000000D01*
X148400000Y-100000000D02*
X148400000Y-101900000D01*
X155000000Y-100000000D02*
X155000000Y-98475000D01*
X152800000Y-100000000D02*
X152800000Y-101950000D01*
X152800000Y-101950000D02*
X152750000Y-102000000D01*
%TD*%
M02*
