%TF.GenerationSoftware,KiCad,Pcbnew,9.0.4*%
%TF.CreationDate,2025-10-07T17:16:44+05:30*%
%TF.ProjectId,Electrode_4,456c6563-7472-46f6-9465-5f342e6b6963,rev?*%
%TF.SameCoordinates,Original*%
%TF.FileFunction,Profile,NP*%
%FSLAX46Y46*%
G04 Gerber Fmt 4.6, Leading zero omitted, Abs format (unit mm)*
G04 Created by KiCad (PCBNEW 9.0.4) date 2025-10-07 17:16:44*
%MOMM*%
%LPD*%
G01*
G04 APERTURE LIST*
%TA.AperFunction,Profile*%
%ADD10C,0.050000*%
%TD*%
%ADD11C,0.050000*%
G04 APERTURE END LIST*
D10*
X144230000Y-102000000D02*
X144220000Y-98200000D01*
D11*
X152460000Y-95410000D02*
X152446408Y-95399661D01*
X152432793Y-95389405D01*
X152419155Y-95379232D01*
X152405494Y-95369141D01*
X152391811Y-95359132D01*
X152378105Y-95349205D01*
X152364377Y-95339361D01*
X152350627Y-95329599D01*
X152336855Y-95319919D01*
X152323062Y-95310322D01*
X152309247Y-95300806D01*
X152295411Y-95291373D01*
X152281555Y-95282022D01*
X152267678Y-95272754D01*
X152253780Y-95263567D01*
X152239863Y-95254463D01*
X152225925Y-95245441D01*
X152211969Y-95236501D01*
X152197993Y-95227644D01*
X152183998Y-95218868D01*
X152169984Y-95210175D01*
X152155952Y-95201565D01*
X152141902Y-95193036D01*
X152127834Y-95184590D01*
X152113749Y-95176227D01*
X152099647Y-95167945D01*
X152085528Y-95159747D01*
X152071393Y-95151631D01*
X152057241Y-95143597D01*
X152043074Y-95135646D01*
X152028892Y-95127778D01*
X152014695Y-95119993D01*
X152000484Y-95112290D01*
X151986259Y-95104671D01*
X151972020Y-95097134D01*
X151957768Y-95089681D01*
X151943504Y-95082311D01*
X151929227Y-95075024D01*
X151914939Y-95067820D01*
X151900640Y-95060700D01*
X151886330Y-95053663D01*
X151872010Y-95046711D01*
X151857680Y-95039841D01*
X151843342Y-95033056D01*
X151828996Y-95026355D01*
X151814642Y-95019738D01*
X151800280Y-95013206D01*
X151785913Y-95006758D01*
X151771540Y-95000394D01*
X151757162Y-94994115D01*
X151742780Y-94987921D01*
X151728395Y-94981812D01*
X151714007Y-94975789D01*
X151699617Y-94969851D01*
X151685226Y-94963998D01*
X151670836Y-94958231D01*
X151656447Y-94952550D01*
X151642059Y-94946955D01*
X151627674Y-94941446D01*
X151613294Y-94936024D01*
X151598918Y-94930689D01*
X151584549Y-94925441D01*
X151570188Y-94920280D01*
X151555835Y-94915206D01*
X151541491Y-94910220D01*
X151527160Y-94905322D01*
X151512841Y-94900512D01*
X151498536Y-94895790D01*
X151484247Y-94891157D01*
X151469975Y-94886613D01*
X151455722Y-94882158D01*
X151441490Y-94877792D01*
X151427280Y-94873516D01*
X151413095Y-94869331D01*
X151398937Y-94865235D01*
X151384807Y-94861230D01*
X151370709Y-94857317D01*
X151356643Y-94853494D01*
X151342614Y-94849763D01*
X151328622Y-94846125D01*
X151314672Y-94842578D01*
X151300766Y-94839124D01*
X151286908Y-94835763D01*
X151273100Y-94832496D01*
X151259345Y-94829322D01*
X151245649Y-94826243D01*
X151232014Y-94823258D01*
X151218446Y-94820368D01*
X151204947Y-94817574D01*
X151191524Y-94814875D01*
X151178182Y-94812273D01*
X151164926Y-94809768D01*
X151151761Y-94807360D01*
X151138696Y-94805049D01*
X151125736Y-94802837D01*
X151112890Y-94800723D01*
X151100166Y-94798709D01*
X151087573Y-94796794D01*
X151075121Y-94794980D01*
X151062822Y-94793267D01*
X151050689Y-94791655D01*
X151038734Y-94790144D01*
X151026976Y-94788737D01*
X151015431Y-94787432D01*
X151004120Y-94786231D01*
X150993068Y-94785135D01*
X150982304Y-94784143D01*
X150971861Y-94783258D01*
X150961781Y-94782478D01*
X150952117Y-94781805D01*
X150942936Y-94781239D01*
X150934330Y-94780780D01*
X150926427Y-94780429D01*
X150919433Y-94780185D01*
X150913720Y-94780045D01*
X150910000Y-94780000D01*
X156000000Y-98000000D02*
X156000000Y-98000000D01*
X144230000Y-102000000D02*
X144230010Y-102004642D01*
X144230040Y-102009264D01*
X144230090Y-102013868D01*
X144230159Y-102018452D01*
X144230248Y-102023017D01*
X144230357Y-102027564D01*
X144230485Y-102032092D01*
X144230633Y-102036601D01*
X144230800Y-102041091D01*
X144230986Y-102045563D01*
X144231192Y-102050017D01*
X144231417Y-102054452D01*
X144231660Y-102058869D01*
X144231923Y-102063267D01*
X144232205Y-102067648D01*
X144232505Y-102072010D01*
X144232824Y-102076355D01*
X144233162Y-102080681D01*
X144233519Y-102084990D01*
X144233894Y-102089281D01*
X144234288Y-102093554D01*
X144234700Y-102097810D01*
X144235130Y-102102048D01*
X144235579Y-102106269D01*
X144236046Y-102110473D01*
X144236531Y-102114658D01*
X144237034Y-102118828D01*
X144237555Y-102122979D01*
X144238094Y-102127115D01*
X144238651Y-102131232D01*
X144239226Y-102135334D01*
X144239819Y-102139417D01*
X144240429Y-102143486D01*
X144241057Y-102147536D01*
X144241703Y-102151571D01*
X144242366Y-102155588D01*
X144243047Y-102159590D01*
X144243745Y-102163574D01*
X144244461Y-102167543D01*
X144245194Y-102171495D01*
X144245944Y-102175432D01*
X144246712Y-102179352D01*
X144247496Y-102183257D01*
X144248298Y-102187144D01*
X144249117Y-102191018D01*
X144249953Y-102194873D01*
X144250806Y-102198715D01*
X144251676Y-102202540D01*
X144252563Y-102206350D01*
X144253467Y-102210144D01*
X144254388Y-102213924D01*
X144255325Y-102217686D01*
X144256279Y-102221435D01*
X144257250Y-102225167D01*
X144258238Y-102228886D01*
X144259242Y-102232588D01*
X144260263Y-102236277D01*
X144261300Y-102239948D01*
X144262354Y-102243608D01*
X144263424Y-102247249D01*
X144264511Y-102250879D01*
X144265614Y-102254491D01*
X144267869Y-102261675D01*
X144270190Y-102268800D01*
X144272576Y-102275869D01*
X144275027Y-102282880D01*
X144277542Y-102289834D01*
X144280122Y-102296733D01*
X144282767Y-102303576D01*
X144285475Y-102310364D01*
X144288247Y-102317098D01*
X144291084Y-102323777D01*
X144293984Y-102330403D01*
X144296947Y-102336976D01*
X144299975Y-102343495D01*
X144303066Y-102349963D01*
X144306220Y-102356378D01*
X144309437Y-102362741D01*
X144312719Y-102369054D01*
X144316063Y-102375315D01*
X144319471Y-102381526D01*
X144322942Y-102387687D01*
X144326477Y-102393798D01*
X144330075Y-102399860D01*
X144333736Y-102405873D01*
X144337461Y-102411836D01*
X144341250Y-102417752D01*
X144345102Y-102423619D01*
X144349019Y-102429438D01*
X144352999Y-102435209D01*
X144357043Y-102440933D01*
X144361152Y-102446610D01*
X144365324Y-102452240D01*
X144369562Y-102457823D01*
X144373864Y-102463359D01*
X144378231Y-102468849D01*
X144382663Y-102474293D01*
X144387160Y-102479691D01*
X144391722Y-102485043D01*
X144396351Y-102490349D01*
X144401045Y-102495610D01*
X144405805Y-102500825D01*
X144410632Y-102505995D01*
X144415526Y-102511119D01*
X144420486Y-102516198D01*
X144425513Y-102521232D01*
X144430608Y-102526220D01*
X144435771Y-102531164D01*
X144441001Y-102536062D01*
X144446300Y-102540915D01*
X144451667Y-102545723D01*
X144457103Y-102550486D01*
X144462609Y-102555203D01*
X144468183Y-102559875D01*
X144473827Y-102564501D01*
X144479542Y-102569082D01*
X144485326Y-102573617D01*
X144491181Y-102578107D01*
X144497107Y-102582550D01*
X144503104Y-102586947D01*
X144509172Y-102591298D01*
X144515312Y-102595602D01*
X144521523Y-102599859D01*
X144527807Y-102604069D01*
X144534163Y-102608232D01*
X144540592Y-102612348D01*
X144547093Y-102616415D01*
X144553667Y-102620435D01*
X144560315Y-102624406D01*
X144567035Y-102628328D01*
X144573830Y-102632201D01*
X144580697Y-102636024D01*
X144587639Y-102639797D01*
X144594653Y-102643520D01*
X144601742Y-102647192D01*
X144608904Y-102650813D01*
X144616140Y-102654382D01*
X144623450Y-102657899D01*
X144630833Y-102661363D01*
X144638289Y-102664773D01*
X144645818Y-102668130D01*
X144653420Y-102671433D01*
X144661095Y-102674680D01*
X144668841Y-102677872D01*
X144676660Y-102681007D01*
X144684549Y-102684086D01*
X144692508Y-102687107D01*
X144700537Y-102690069D01*
X144708635Y-102692973D01*
X144716801Y-102695817D01*
X144725034Y-102698600D01*
X144733333Y-102701322D01*
X144741695Y-102703982D01*
X144750121Y-102706579D01*
X144758608Y-102709112D01*
X144767154Y-102711580D01*
X144775758Y-102713983D01*
X144784416Y-102716319D01*
X144793127Y-102718588D01*
X144801888Y-102720788D01*
X144810695Y-102722919D01*
X144819544Y-102724979D01*
X144828433Y-102726968D01*
X144837356Y-102728883D01*
X144846309Y-102730725D01*
X144855286Y-102732492D01*
X144864281Y-102734183D01*
X144873286Y-102735796D01*
X144882294Y-102737330D01*
X144891296Y-102738785D01*
X144900281Y-102740157D01*
X144909238Y-102741447D01*
X144918152Y-102742653D01*
X144927007Y-102743773D01*
X144935784Y-102744806D01*
X144944462Y-102745750D01*
X144953011Y-102746603D01*
X144961398Y-102747365D01*
X144969582Y-102748032D01*
X144977507Y-102748605D01*
X144985099Y-102749080D01*
X144992255Y-102749457D01*
X144998818Y-102749734D01*
X145004519Y-102749911D01*
X145008781Y-102749991D01*
X145010000Y-102750000D01*
D10*
X155850000Y-98300000D02*
X155850000Y-102000000D01*
X150460000Y-94780000D02*
X150910000Y-94780000D01*
X155600000Y-97810000D02*
X152460000Y-95410000D01*
X154910000Y-102750000D02*
X145010000Y-102750000D01*
D11*
X146664819Y-95438247D02*
X146675033Y-95427551D01*
X146685271Y-95416944D01*
X146695534Y-95406427D01*
X146705822Y-95395998D01*
X146716134Y-95385659D01*
X146726470Y-95375408D01*
X146736830Y-95365245D01*
X146747214Y-95355171D01*
X146757621Y-95345184D01*
X146768052Y-95335286D01*
X146778505Y-95325476D01*
X146788982Y-95315753D01*
X146799482Y-95306117D01*
X146810004Y-95296569D01*
X146820549Y-95287108D01*
X146831116Y-95277734D01*
X146841705Y-95268448D01*
X146852316Y-95259247D01*
X146862948Y-95250134D01*
X146873602Y-95241107D01*
X146884277Y-95232166D01*
X146894973Y-95223312D01*
X146905689Y-95214544D01*
X146916426Y-95205862D01*
X146927184Y-95197266D01*
X146937961Y-95188756D01*
X146948758Y-95180332D01*
X146959575Y-95171993D01*
X146970411Y-95163741D01*
X146981266Y-95155573D01*
X146992139Y-95147491D01*
X147003032Y-95139495D01*
X147013942Y-95131584D01*
X147024870Y-95123758D01*
X147035816Y-95116018D01*
X147046779Y-95108363D01*
X147057759Y-95100793D01*
X147068755Y-95093308D01*
X147079768Y-95085908D01*
X147090797Y-95078593D01*
X147101842Y-95071364D01*
X147112901Y-95064219D01*
X147123976Y-95057160D01*
X147135065Y-95050186D01*
X147146168Y-95043296D01*
X147157285Y-95036492D01*
X147168415Y-95029773D01*
X147179558Y-95023139D01*
X147190713Y-95016590D01*
X147201881Y-95010127D01*
X147213059Y-95003748D01*
X147224248Y-94997455D01*
X147235448Y-94991247D01*
X147246658Y-94985125D01*
X147257877Y-94979088D01*
X147269104Y-94973137D01*
X147280340Y-94967271D01*
X147291582Y-94961491D01*
X147302832Y-94955797D01*
X147314088Y-94950188D01*
X147325349Y-94944666D01*
X147336615Y-94939230D01*
X147347884Y-94933880D01*
X147359157Y-94928617D01*
X147370431Y-94923440D01*
X147381708Y-94918349D01*
X147392984Y-94913346D01*
X147404260Y-94908430D01*
X147415534Y-94903600D01*
X147426806Y-94898859D01*
X147438074Y-94894204D01*
X147449337Y-94889638D01*
X147460594Y-94885159D01*
X147471844Y-94880769D01*
X147483084Y-94876467D01*
X147494315Y-94872253D01*
X147505535Y-94868129D01*
X147516741Y-94864094D01*
X147527933Y-94860147D01*
X147539108Y-94856291D01*
X147550265Y-94852525D01*
X147561401Y-94848849D01*
X147572516Y-94845263D01*
X147583606Y-94841768D01*
X147594669Y-94838364D01*
X147605704Y-94835052D01*
X147616707Y-94831832D01*
X147627675Y-94828704D01*
X147638607Y-94825668D01*
X147649498Y-94822726D01*
X147660345Y-94819877D01*
X147671145Y-94817121D01*
X147681894Y-94814460D01*
X147692587Y-94811893D01*
X147703221Y-94809421D01*
X147713791Y-94807045D01*
X147724291Y-94804765D01*
X147734715Y-94802582D01*
X147745058Y-94800495D01*
X147755312Y-94798506D01*
X147765471Y-94796615D01*
X147775525Y-94794822D01*
X147785467Y-94793129D01*
X147795284Y-94791535D01*
X147804967Y-94790042D01*
X147814502Y-94788650D01*
X147823874Y-94787359D01*
X147833066Y-94786171D01*
X147842058Y-94785086D01*
X147850826Y-94784104D01*
X147859344Y-94783226D01*
X147867575Y-94782454D01*
X147875477Y-94781787D01*
X147882994Y-94781226D01*
X147890050Y-94780771D01*
X147896537Y-94780423D01*
X147902285Y-94780182D01*
X147906981Y-94780044D01*
X147910000Y-94780000D01*
X155850000Y-98300000D02*
X155849960Y-98293445D01*
X155849841Y-98286895D01*
X155849642Y-98280349D01*
X155849364Y-98273808D01*
X155849006Y-98267272D01*
X155848568Y-98260739D01*
X155848051Y-98254210D01*
X155847455Y-98247685D01*
X155846779Y-98241163D01*
X155846023Y-98234644D01*
X155845188Y-98228128D01*
X155844272Y-98221615D01*
X155843277Y-98215105D01*
X155842202Y-98208597D01*
X155841046Y-98202092D01*
X155839810Y-98195589D01*
X155838494Y-98189089D01*
X155837097Y-98182591D01*
X155835618Y-98176094D01*
X155834059Y-98169600D01*
X155832419Y-98163108D01*
X155830697Y-98156618D01*
X155828893Y-98150129D01*
X155827007Y-98143643D01*
X155825039Y-98137159D01*
X155822989Y-98130677D01*
X155820856Y-98124197D01*
X155818640Y-98117720D01*
X155816341Y-98111245D01*
X155813959Y-98104773D01*
X155811493Y-98098303D01*
X155808944Y-98091837D01*
X155806310Y-98085374D01*
X155803592Y-98078915D01*
X155800790Y-98072460D01*
X155797903Y-98066009D01*
X155794931Y-98059563D01*
X155791875Y-98053123D01*
X155788733Y-98046688D01*
X155785506Y-98040260D01*
X155782194Y-98033838D01*
X155778797Y-98027425D01*
X155775315Y-98021019D01*
X155771747Y-98014623D01*
X155768094Y-98008237D01*
X155764357Y-98001862D01*
X155760535Y-97995499D01*
X155756628Y-97989149D01*
X155752637Y-97982813D01*
X155748563Y-97976493D01*
X155744406Y-97970190D01*
X155740167Y-97963906D01*
X155735846Y-97957642D01*
X155731444Y-97951400D01*
X155726963Y-97945182D01*
X155722404Y-97938991D01*
X155717768Y-97932827D01*
X155713057Y-97926695D01*
X155708273Y-97920597D01*
X155703418Y-97914536D01*
X155698495Y-97908516D01*
X155693507Y-97902539D01*
X155688457Y-97896611D01*
X155683350Y-97890735D01*
X155678190Y-97884918D01*
X155672982Y-97879164D01*
X155667732Y-97873480D01*
X155662449Y-97867874D01*
X155657141Y-97862354D01*
X155651817Y-97856929D01*
X155646491Y-97851611D01*
X155641177Y-97846413D01*
X155635893Y-97841352D01*
X155630663Y-97836446D01*
X155625515Y-97831720D01*
X155620488Y-97827204D01*
X155615634Y-97822942D01*
X155611027Y-97818991D01*
X155606785Y-97815442D01*
X155603114Y-97812452D01*
X155600487Y-97810375D01*
X155600000Y-97810000D01*
D10*
X147910000Y-94780000D02*
X148580000Y-94780000D01*
D11*
X144220000Y-98200000D02*
X144220040Y-98196330D01*
X144220160Y-98192585D01*
X144220363Y-98188762D01*
X144220650Y-98184862D01*
X144221023Y-98180881D01*
X144221484Y-98176818D01*
X144222035Y-98172671D01*
X144222677Y-98168438D01*
X144223414Y-98164119D01*
X144224247Y-98159710D01*
X144225178Y-98155211D01*
X144226210Y-98150619D01*
X144227344Y-98145933D01*
X144228584Y-98141151D01*
X144229932Y-98136272D01*
X144231390Y-98131293D01*
X144232960Y-98126214D01*
X144234646Y-98121033D01*
X144236449Y-98115747D01*
X144238373Y-98110356D01*
X144240419Y-98104858D01*
X144242590Y-98099251D01*
X144244890Y-98093535D01*
X144247320Y-98087708D01*
X144249883Y-98081768D01*
X144252581Y-98075714D01*
X144255419Y-98069546D01*
X144258396Y-98063262D01*
X144261517Y-98056861D01*
X144264784Y-98050343D01*
X144268199Y-98043706D01*
X144271764Y-98036951D01*
X144275482Y-98030076D01*
X144279355Y-98023082D01*
X144283385Y-98015969D01*
X144287573Y-98008736D01*
X144291921Y-98001384D01*
X144296432Y-97993914D01*
X144301105Y-97986327D01*
X144305942Y-97978624D01*
X144310945Y-97970807D01*
X144316112Y-97962878D01*
X144321445Y-97954841D01*
X144326941Y-97946697D01*
X144332602Y-97938453D01*
X144338423Y-97930112D01*
X144344403Y-97921680D01*
X144350539Y-97913165D01*
X144356824Y-97904576D01*
X144363253Y-97895922D01*
X144369818Y-97887215D01*
X144376508Y-97878470D01*
X144383311Y-97869706D01*
X144390209Y-97860945D01*
X144397181Y-97852212D01*
X144404199Y-97843543D01*
X144411228Y-97834981D01*
X144418218Y-97826584D01*
X144425102Y-97818429D01*
X144431781Y-97810628D01*
X144438104Y-97803349D01*
X144443807Y-97796882D01*
X144448336Y-97791828D01*
X144450000Y-97790000D01*
X155850000Y-102000000D02*
X155849990Y-102004229D01*
X155849960Y-102008442D01*
X155849910Y-102012639D01*
X155849841Y-102016821D01*
X155849752Y-102020987D01*
X155849643Y-102025137D01*
X155849514Y-102029272D01*
X155849366Y-102033391D01*
X155849199Y-102037494D01*
X155849012Y-102041583D01*
X155848806Y-102045656D01*
X155848581Y-102049714D01*
X155848337Y-102053757D01*
X155848073Y-102057785D01*
X155847791Y-102061798D01*
X155847489Y-102065796D01*
X155847169Y-102069780D01*
X155846830Y-102073748D01*
X155846472Y-102077702D01*
X155846095Y-102081641D01*
X155845700Y-102085566D01*
X155845286Y-102089476D01*
X155844853Y-102093373D01*
X155844403Y-102097254D01*
X155843933Y-102101122D01*
X155843445Y-102104975D01*
X155842939Y-102108815D01*
X155842415Y-102112640D01*
X155841872Y-102116452D01*
X155841311Y-102120249D01*
X155840732Y-102124034D01*
X155840135Y-102127803D01*
X155839520Y-102131560D01*
X155838887Y-102135303D01*
X155838236Y-102139033D01*
X155837567Y-102142748D01*
X155836880Y-102146451D01*
X155836175Y-102150140D01*
X155835453Y-102153817D01*
X155834713Y-102157479D01*
X155833954Y-102161130D01*
X155833179Y-102164765D01*
X155832386Y-102168390D01*
X155831575Y-102172000D01*
X155830746Y-102175599D01*
X155829901Y-102179184D01*
X155829037Y-102182757D01*
X155828156Y-102186316D01*
X155827258Y-102189865D01*
X155826342Y-102193399D01*
X155824458Y-102200431D01*
X155822505Y-102207414D01*
X155820483Y-102214349D01*
X155818392Y-102221235D01*
X155816232Y-102228073D01*
X155814004Y-102234865D01*
X155811707Y-102241609D01*
X155809341Y-102248307D01*
X155806907Y-102254958D01*
X155804405Y-102261565D01*
X155801835Y-102268126D01*
X155799196Y-102274643D01*
X155796490Y-102281115D01*
X155793715Y-102287543D01*
X155790873Y-102293929D01*
X155787962Y-102300271D01*
X155784983Y-102306570D01*
X155781936Y-102312827D01*
X155778820Y-102319043D01*
X155775636Y-102325217D01*
X155772384Y-102331349D01*
X155769063Y-102337441D01*
X155765673Y-102343492D01*
X155762215Y-102349503D01*
X155758688Y-102355474D01*
X155755091Y-102361405D01*
X155751425Y-102367297D01*
X155747689Y-102373150D01*
X155743884Y-102378964D01*
X155740008Y-102384740D01*
X155736062Y-102390477D01*
X155732046Y-102396176D01*
X155727959Y-102401837D01*
X155723801Y-102407460D01*
X155719571Y-102413046D01*
X155715270Y-102418595D01*
X155710896Y-102424106D01*
X155706450Y-102429580D01*
X155701932Y-102435018D01*
X155697340Y-102440418D01*
X155692675Y-102445782D01*
X155687936Y-102451109D01*
X155683123Y-102456400D01*
X155678235Y-102461654D01*
X155673272Y-102466872D01*
X155668234Y-102472054D01*
X155663119Y-102477199D01*
X155657929Y-102482308D01*
X155652662Y-102487381D01*
X155647317Y-102492417D01*
X155641895Y-102497417D01*
X155636395Y-102502381D01*
X155630816Y-102507308D01*
X155625158Y-102512199D01*
X155619420Y-102517053D01*
X155613603Y-102521871D01*
X155607704Y-102526651D01*
X155601725Y-102531395D01*
X155595665Y-102536102D01*
X155589522Y-102540771D01*
X155583298Y-102545403D01*
X155576990Y-102549997D01*
X155570598Y-102554554D01*
X155564123Y-102559072D01*
X155557564Y-102563553D01*
X155550919Y-102567994D01*
X155544190Y-102572397D01*
X155537374Y-102576761D01*
X155530473Y-102581086D01*
X155523484Y-102585371D01*
X155516409Y-102589616D01*
X155509246Y-102593820D01*
X155501995Y-102597984D01*
X155494655Y-102602107D01*
X155487227Y-102606188D01*
X155479710Y-102610228D01*
X155472103Y-102614225D01*
X155464407Y-102618180D01*
X155456620Y-102622091D01*
X155448743Y-102625959D01*
X155440776Y-102629783D01*
X155432718Y-102633562D01*
X155424568Y-102637296D01*
X155416328Y-102640984D01*
X155407996Y-102644626D01*
X155399572Y-102648221D01*
X155391058Y-102651769D01*
X155382451Y-102655269D01*
X155373754Y-102658720D01*
X155364965Y-102662122D01*
X155356085Y-102665474D01*
X155347114Y-102668775D01*
X155338053Y-102672026D01*
X155328902Y-102675224D01*
X155319660Y-102678370D01*
X155310330Y-102681462D01*
X155300911Y-102684500D01*
X155291405Y-102687483D01*
X155281811Y-102690410D01*
X155272132Y-102693280D01*
X155262368Y-102696094D01*
X155252520Y-102698848D01*
X155242591Y-102701544D01*
X155232580Y-102704179D01*
X155222492Y-102706754D01*
X155212326Y-102709266D01*
X155202086Y-102711715D01*
X155191775Y-102714101D01*
X155181394Y-102716421D01*
X155170947Y-102718676D01*
X155160438Y-102720863D01*
X155149869Y-102722982D01*
X155139247Y-102725031D01*
X155128575Y-102727011D01*
X155117859Y-102728918D01*
X155107104Y-102730753D01*
X155096318Y-102732513D01*
X155085508Y-102734198D01*
X155074682Y-102735807D01*
X155063851Y-102737337D01*
X155053025Y-102738788D01*
X155042217Y-102740158D01*
X155031442Y-102741446D01*
X155020715Y-102742650D01*
X155010057Y-102743769D01*
X154999490Y-102744801D01*
X154989042Y-102745745D01*
X154978747Y-102746598D01*
X154968644Y-102747359D01*
X154958785Y-102748028D01*
X154949236Y-102748600D01*
X154940086Y-102749076D01*
X154931458Y-102749454D01*
X154923543Y-102749732D01*
X154916662Y-102749909D01*
X154911504Y-102749991D01*
X154910000Y-102750000D01*
D10*
X148580000Y-94780000D02*
X150460000Y-94780000D01*
X144450000Y-97790000D02*
X146664819Y-95438247D01*
M02*
