%TF.GenerationSoftware,KiCad,Pcbnew,9.0.4*%
%TF.CreationDate,2025-10-07T17:16:44+05:30*%
%TF.ProjectId,Electrode_4,456c6563-7472-46f6-9465-5f342e6b6963,rev?*%
%TF.SameCoordinates,Original*%
%TF.FileFunction,Other,User*%
%FSLAX46Y46*%
G04 Gerber Fmt 4.6, Leading zero omitted, Abs format (unit mm)*
G04 Created by KiCad (PCBNEW 9.0.4) date 2025-10-07 17:16:44*
%MOMM*%
%LPD*%
G01*
G04 APERTURE LIST*
%ADD10C,0.150000*%
%ADD11C,0.100000*%
G04 APERTURE END LIST*
D10*
X137175952Y-102579819D02*
X137271190Y-102579819D01*
X137271190Y-102579819D02*
X137366428Y-102627438D01*
X137366428Y-102627438D02*
X137414047Y-102675057D01*
X137414047Y-102675057D02*
X137461666Y-102770295D01*
X137461666Y-102770295D02*
X137509285Y-102960771D01*
X137509285Y-102960771D02*
X137509285Y-103198866D01*
X137509285Y-103198866D02*
X137461666Y-103389342D01*
X137461666Y-103389342D02*
X137414047Y-103484580D01*
X137414047Y-103484580D02*
X137366428Y-103532200D01*
X137366428Y-103532200D02*
X137271190Y-103579819D01*
X137271190Y-103579819D02*
X137175952Y-103579819D01*
X137175952Y-103579819D02*
X137080714Y-103532200D01*
X137080714Y-103532200D02*
X137033095Y-103484580D01*
X137033095Y-103484580D02*
X136985476Y-103389342D01*
X136985476Y-103389342D02*
X136937857Y-103198866D01*
X136937857Y-103198866D02*
X136937857Y-102960771D01*
X136937857Y-102960771D02*
X136985476Y-102770295D01*
X136985476Y-102770295D02*
X137033095Y-102675057D01*
X137033095Y-102675057D02*
X137080714Y-102627438D01*
X137080714Y-102627438D02*
X137175952Y-102579819D01*
X137937857Y-103484580D02*
X137985476Y-103532200D01*
X137985476Y-103532200D02*
X137937857Y-103579819D01*
X137937857Y-103579819D02*
X137890238Y-103532200D01*
X137890238Y-103532200D02*
X137937857Y-103484580D01*
X137937857Y-103484580D02*
X137937857Y-103579819D01*
X138890237Y-102579819D02*
X138414047Y-102579819D01*
X138414047Y-102579819D02*
X138366428Y-103056009D01*
X138366428Y-103056009D02*
X138414047Y-103008390D01*
X138414047Y-103008390D02*
X138509285Y-102960771D01*
X138509285Y-102960771D02*
X138747380Y-102960771D01*
X138747380Y-102960771D02*
X138842618Y-103008390D01*
X138842618Y-103008390D02*
X138890237Y-103056009D01*
X138890237Y-103056009D02*
X138937856Y-103151247D01*
X138937856Y-103151247D02*
X138937856Y-103389342D01*
X138937856Y-103389342D02*
X138890237Y-103484580D01*
X138890237Y-103484580D02*
X138842618Y-103532200D01*
X138842618Y-103532200D02*
X138747380Y-103579819D01*
X138747380Y-103579819D02*
X138509285Y-103579819D01*
X138509285Y-103579819D02*
X138414047Y-103532200D01*
X138414047Y-103532200D02*
X138366428Y-103484580D01*
X139842618Y-102579819D02*
X139366428Y-102579819D01*
X139366428Y-102579819D02*
X139318809Y-103056009D01*
X139318809Y-103056009D02*
X139366428Y-103008390D01*
X139366428Y-103008390D02*
X139461666Y-102960771D01*
X139461666Y-102960771D02*
X139699761Y-102960771D01*
X139699761Y-102960771D02*
X139794999Y-103008390D01*
X139794999Y-103008390D02*
X139842618Y-103056009D01*
X139842618Y-103056009D02*
X139890237Y-103151247D01*
X139890237Y-103151247D02*
X139890237Y-103389342D01*
X139890237Y-103389342D02*
X139842618Y-103484580D01*
X139842618Y-103484580D02*
X139794999Y-103532200D01*
X139794999Y-103532200D02*
X139699761Y-103579819D01*
X139699761Y-103579819D02*
X139461666Y-103579819D01*
X139461666Y-103579819D02*
X139366428Y-103532200D01*
X139366428Y-103532200D02*
X139318809Y-103484580D01*
X141366428Y-103960771D02*
X141318809Y-103913152D01*
X141318809Y-103913152D02*
X141223571Y-103770295D01*
X141223571Y-103770295D02*
X141175952Y-103675057D01*
X141175952Y-103675057D02*
X141128333Y-103532200D01*
X141128333Y-103532200D02*
X141080714Y-103294104D01*
X141080714Y-103294104D02*
X141080714Y-103103628D01*
X141080714Y-103103628D02*
X141128333Y-102865533D01*
X141128333Y-102865533D02*
X141175952Y-102722676D01*
X141175952Y-102722676D02*
X141223571Y-102627438D01*
X141223571Y-102627438D02*
X141318809Y-102484580D01*
X141318809Y-102484580D02*
X141366428Y-102436961D01*
X141747381Y-103579819D02*
X141747381Y-102913152D01*
X141747381Y-103008390D02*
X141795000Y-102960771D01*
X141795000Y-102960771D02*
X141890238Y-102913152D01*
X141890238Y-102913152D02*
X142033095Y-102913152D01*
X142033095Y-102913152D02*
X142128333Y-102960771D01*
X142128333Y-102960771D02*
X142175952Y-103056009D01*
X142175952Y-103056009D02*
X142175952Y-103579819D01*
X142175952Y-103056009D02*
X142223571Y-102960771D01*
X142223571Y-102960771D02*
X142318809Y-102913152D01*
X142318809Y-102913152D02*
X142461666Y-102913152D01*
X142461666Y-102913152D02*
X142556905Y-102960771D01*
X142556905Y-102960771D02*
X142604524Y-103056009D01*
X142604524Y-103056009D02*
X142604524Y-103579819D01*
X143080714Y-103579819D02*
X143080714Y-102913152D01*
X143080714Y-103008390D02*
X143128333Y-102960771D01*
X143128333Y-102960771D02*
X143223571Y-102913152D01*
X143223571Y-102913152D02*
X143366428Y-102913152D01*
X143366428Y-102913152D02*
X143461666Y-102960771D01*
X143461666Y-102960771D02*
X143509285Y-103056009D01*
X143509285Y-103056009D02*
X143509285Y-103579819D01*
X143509285Y-103056009D02*
X143556904Y-102960771D01*
X143556904Y-102960771D02*
X143652142Y-102913152D01*
X143652142Y-102913152D02*
X143794999Y-102913152D01*
X143794999Y-102913152D02*
X143890238Y-102960771D01*
X143890238Y-102960771D02*
X143937857Y-103056009D01*
X143937857Y-103056009D02*
X143937857Y-103579819D01*
X144318809Y-103960771D02*
X144366428Y-103913152D01*
X144366428Y-103913152D02*
X144461666Y-103770295D01*
X144461666Y-103770295D02*
X144509285Y-103675057D01*
X144509285Y-103675057D02*
X144556904Y-103532200D01*
X144556904Y-103532200D02*
X144604523Y-103294104D01*
X144604523Y-103294104D02*
X144604523Y-103103628D01*
X144604523Y-103103628D02*
X144556904Y-102865533D01*
X144556904Y-102865533D02*
X144509285Y-102722676D01*
X144509285Y-102722676D02*
X144461666Y-102627438D01*
X144461666Y-102627438D02*
X144366428Y-102484580D01*
X144366428Y-102484580D02*
X144318809Y-102436961D01*
D11*
X145380000Y-100875000D02*
X145380000Y-103806420D01*
X145930000Y-103806420D02*
X145930000Y-100935000D01*
X145467619Y-103220000D02*
X145930000Y-103220000D01*
X145380000Y-103220000D02*
X146506504Y-102633579D01*
X145380000Y-103220000D02*
X146506504Y-103806421D01*
X145930000Y-103220000D02*
X144803496Y-103806421D01*
X145930000Y-103220000D02*
X144803496Y-102633579D01*
D10*
X136590952Y-96109819D02*
X136686190Y-96109819D01*
X136686190Y-96109819D02*
X136781428Y-96157438D01*
X136781428Y-96157438D02*
X136829047Y-96205057D01*
X136829047Y-96205057D02*
X136876666Y-96300295D01*
X136876666Y-96300295D02*
X136924285Y-96490771D01*
X136924285Y-96490771D02*
X136924285Y-96728866D01*
X136924285Y-96728866D02*
X136876666Y-96919342D01*
X136876666Y-96919342D02*
X136829047Y-97014580D01*
X136829047Y-97014580D02*
X136781428Y-97062200D01*
X136781428Y-97062200D02*
X136686190Y-97109819D01*
X136686190Y-97109819D02*
X136590952Y-97109819D01*
X136590952Y-97109819D02*
X136495714Y-97062200D01*
X136495714Y-97062200D02*
X136448095Y-97014580D01*
X136448095Y-97014580D02*
X136400476Y-96919342D01*
X136400476Y-96919342D02*
X136352857Y-96728866D01*
X136352857Y-96728866D02*
X136352857Y-96490771D01*
X136352857Y-96490771D02*
X136400476Y-96300295D01*
X136400476Y-96300295D02*
X136448095Y-96205057D01*
X136448095Y-96205057D02*
X136495714Y-96157438D01*
X136495714Y-96157438D02*
X136590952Y-96109819D01*
X137352857Y-97014580D02*
X137400476Y-97062200D01*
X137400476Y-97062200D02*
X137352857Y-97109819D01*
X137352857Y-97109819D02*
X137305238Y-97062200D01*
X137305238Y-97062200D02*
X137352857Y-97014580D01*
X137352857Y-97014580D02*
X137352857Y-97109819D01*
X138305237Y-96109819D02*
X137829047Y-96109819D01*
X137829047Y-96109819D02*
X137781428Y-96586009D01*
X137781428Y-96586009D02*
X137829047Y-96538390D01*
X137829047Y-96538390D02*
X137924285Y-96490771D01*
X137924285Y-96490771D02*
X138162380Y-96490771D01*
X138162380Y-96490771D02*
X138257618Y-96538390D01*
X138257618Y-96538390D02*
X138305237Y-96586009D01*
X138305237Y-96586009D02*
X138352856Y-96681247D01*
X138352856Y-96681247D02*
X138352856Y-96919342D01*
X138352856Y-96919342D02*
X138305237Y-97014580D01*
X138305237Y-97014580D02*
X138257618Y-97062200D01*
X138257618Y-97062200D02*
X138162380Y-97109819D01*
X138162380Y-97109819D02*
X137924285Y-97109819D01*
X137924285Y-97109819D02*
X137829047Y-97062200D01*
X137829047Y-97062200D02*
X137781428Y-97014580D01*
X139257618Y-96109819D02*
X138781428Y-96109819D01*
X138781428Y-96109819D02*
X138733809Y-96586009D01*
X138733809Y-96586009D02*
X138781428Y-96538390D01*
X138781428Y-96538390D02*
X138876666Y-96490771D01*
X138876666Y-96490771D02*
X139114761Y-96490771D01*
X139114761Y-96490771D02*
X139209999Y-96538390D01*
X139209999Y-96538390D02*
X139257618Y-96586009D01*
X139257618Y-96586009D02*
X139305237Y-96681247D01*
X139305237Y-96681247D02*
X139305237Y-96919342D01*
X139305237Y-96919342D02*
X139257618Y-97014580D01*
X139257618Y-97014580D02*
X139209999Y-97062200D01*
X139209999Y-97062200D02*
X139114761Y-97109819D01*
X139114761Y-97109819D02*
X138876666Y-97109819D01*
X138876666Y-97109819D02*
X138781428Y-97062200D01*
X138781428Y-97062200D02*
X138733809Y-97014580D01*
X140781428Y-97490771D02*
X140733809Y-97443152D01*
X140733809Y-97443152D02*
X140638571Y-97300295D01*
X140638571Y-97300295D02*
X140590952Y-97205057D01*
X140590952Y-97205057D02*
X140543333Y-97062200D01*
X140543333Y-97062200D02*
X140495714Y-96824104D01*
X140495714Y-96824104D02*
X140495714Y-96633628D01*
X140495714Y-96633628D02*
X140543333Y-96395533D01*
X140543333Y-96395533D02*
X140590952Y-96252676D01*
X140590952Y-96252676D02*
X140638571Y-96157438D01*
X140638571Y-96157438D02*
X140733809Y-96014580D01*
X140733809Y-96014580D02*
X140781428Y-95966961D01*
X141162381Y-97109819D02*
X141162381Y-96443152D01*
X141162381Y-96538390D02*
X141210000Y-96490771D01*
X141210000Y-96490771D02*
X141305238Y-96443152D01*
X141305238Y-96443152D02*
X141448095Y-96443152D01*
X141448095Y-96443152D02*
X141543333Y-96490771D01*
X141543333Y-96490771D02*
X141590952Y-96586009D01*
X141590952Y-96586009D02*
X141590952Y-97109819D01*
X141590952Y-96586009D02*
X141638571Y-96490771D01*
X141638571Y-96490771D02*
X141733809Y-96443152D01*
X141733809Y-96443152D02*
X141876666Y-96443152D01*
X141876666Y-96443152D02*
X141971905Y-96490771D01*
X141971905Y-96490771D02*
X142019524Y-96586009D01*
X142019524Y-96586009D02*
X142019524Y-97109819D01*
X142495714Y-97109819D02*
X142495714Y-96443152D01*
X142495714Y-96538390D02*
X142543333Y-96490771D01*
X142543333Y-96490771D02*
X142638571Y-96443152D01*
X142638571Y-96443152D02*
X142781428Y-96443152D01*
X142781428Y-96443152D02*
X142876666Y-96490771D01*
X142876666Y-96490771D02*
X142924285Y-96586009D01*
X142924285Y-96586009D02*
X142924285Y-97109819D01*
X142924285Y-96586009D02*
X142971904Y-96490771D01*
X142971904Y-96490771D02*
X143067142Y-96443152D01*
X143067142Y-96443152D02*
X143209999Y-96443152D01*
X143209999Y-96443152D02*
X143305238Y-96490771D01*
X143305238Y-96490771D02*
X143352857Y-96586009D01*
X143352857Y-96586009D02*
X143352857Y-97109819D01*
X143733809Y-97490771D02*
X143781428Y-97443152D01*
X143781428Y-97443152D02*
X143876666Y-97300295D01*
X143876666Y-97300295D02*
X143924285Y-97205057D01*
X143924285Y-97205057D02*
X143971904Y-97062200D01*
X143971904Y-97062200D02*
X144019523Y-96824104D01*
X144019523Y-96824104D02*
X144019523Y-96633628D01*
X144019523Y-96633628D02*
X143971904Y-96395533D01*
X143971904Y-96395533D02*
X143924285Y-96252676D01*
X143924285Y-96252676D02*
X143876666Y-96157438D01*
X143876666Y-96157438D02*
X143781428Y-96014580D01*
X143781428Y-96014580D02*
X143733809Y-95966961D01*
D11*
X144825000Y-99940000D02*
X144825000Y-96027704D01*
X145375000Y-96027704D02*
X145375000Y-99995000D01*
X144882619Y-96614124D02*
X145375000Y-96614124D01*
X144825000Y-96614124D02*
X145951504Y-96027703D01*
X144825000Y-96614124D02*
X145951504Y-97200545D01*
X145375000Y-96614124D02*
X144248496Y-97200545D01*
X145375000Y-96614124D02*
X144248496Y-96027703D01*
M02*
